# xmcd
#
# Track frame offsets:
#	150
#	11856
#	21440
#	33888
#	43497
#	56905
#	67831
#	78530
#	89062
#	100154
#	110727
#	122981
#	132892
#	145820
#	155347
#	161477
#	173829
#	186009
#	189609
#	200172
#	204842
#	213005
#	224017
#	236158
#	247969
#	259729
#	272428
#	286400
#
# Disc length: 4320 seconds
#
# Revision: 1
# Processed by: cddbd v1.5.2PL0 Copyright (c) Steve Scherf et al.
# Submitted via: EasyCDDAExtractor 15.3.0.1
#
DISCID=a910de1c
DTITLE=Ernie Chaffin - Laughin' and Jokin' - The Sun Years
DYEAR=1900
DGENRE=Rockabilly
TTITLE0=Feelin' Low
TTITLE1=Lonesome For My Baby
TTITLE2=I'm Lonesome
TTITLE3=Laughin' and Jokin'
TTITLE4=Born To Lose
TTITLE5=(Nothing Can Change) My Love For
TTITLE6=Don't Ever Leave Me
TTITLE7=Miracle Of You
TTITLE8=The Heart Of Me
TTITLE9=Linda
TTITLE10=I Walk Alone
TTITLE11=Born To Lose (Alt)
TTITLE12=Feelin' Low (Alt-1)
TTITLE13=My Heart Tells Me
TTITLE14=No Fool Like An Old Fool
TTITLE15=Be Faithful To Me
TTITLE16=I'm Lonesome (Alt-1)
TTITLE17=Laughin' and Jokin' (Alt)
TTITLE18=Miracle Of You (Undubbed Master)
TTITLE19=I Walk Alone (Alt)
TTITLE20=Got You On My Mind
TTITLE21=The Heart Of Me (Alt)
TTITLE22=My Love For You (Undubbed Master)
TTITLE23=Lonesome For My Baby (Alt)
TTITLE24=Born To Lose (Undubbed Master)
TTITLE25=I'm Lonesome (Alt-2)
TTITLE26=Feelin' Low (Alt-2)
TTITLE27=Interview
EXTD=
EXTT0=
EXTT1=
EXTT2=
EXTT3=
EXTT4=
EXTT5=
EXTT6=
EXTT7=
EXTT8=
EXTT9=
EXTT10=
EXTT11=
EXTT12=
EXTT13=
EXTT14=
EXTT15=
EXTT16=
EXTT17=
EXTT18=
EXTT19=
EXTT20=
EXTT21=
EXTT22=
EXTT23=
EXTT24=
EXTT25=
EXTT26=
EXTT27=
PLAYORDER=
